<?xml version="1.0" encoding="UTF-8" standalone="no"?>
<svg
   width="52"
   height="2047"
   viewBox="0 0 52 2047"
   fill="none"
   version="1.1"
   id="svg1"
   sodipodi:docname="Vector.svg"
   xmlns:inkscape="http://www.inkscape.org/namespaces/inkscape"
   xmlns:sodipodi="http://sodipodi.sourceforge.net/DTD/sodipodi-0.dtd"
   xmlns="http://www.w3.org/2000/svg"
   xmlns:svg="http://www.w3.org/2000/svg">
  <defs
     id="defs1" />
  <sodipodi:namedview
     id="namedview1"
     pagecolor="#ffffff"
     bordercolor="#000000"
     borderopacity="0.25"
     inkscape:showpageshadow="2"
     inkscape:pageopacity="0.0"
     inkscape:pagecheckerboard="0"
     inkscape:deskcolor="#d1d1d1"
     showgrid="false" />
  <path
     d="m 26,0 v 314 c -4.329166,0 -8.371469,1.14745 -11.890362,3.1171 C 6.2488543,321.51705 1,330.01994 1,339 c 0,13 10,25 25,25 15,0 25,-11 25,-25 0,-14 -23,-21 -25,0 v 297 18.5 c -12.5,0 -25,9.5 -25,24.5 0,15 11,24 25,24 14,0 25,-10.5 25,-24 -1.2693,-14.633 -25,-19 -25,0 v 300 15.5 c -12.5,0 -25.000007,9 -25,24.5 1e-5,15.5 11.3457,25.15 25,24.5 10.5163,-0.5 24.4852,-8.32 24.5,-24.5 0.0148,-16.18 -22.0037,-18.36 -24.5,0 v 308 11 c -13,0 -25,10.5 -25,25 0,14.5 12.5,25 25,25 12.5,0 24.9422,-6.81 25,-25 0.0578,-18.19 -25,-17 -25,0 v 307 8.5 c -13.5,0 -25,9 -25,24.5 0,15.5 13,24.5 25,24.5 12,0 24.5,-8.5 24.5,-24.5 0,-16 -24.5,-16 -24.5,0 v 346"
     stroke="#000000"
     id="path1"
     sodipodi:nodetypes="ccsssscccsscsccscscccssssccssssc" />
</svg>
